<svg id="Lager_1" data-name="Lager 1" xmlns="http://www.w3.org/2000/svg" xmlns:xlink="http://www.w3.org/1999/xlink" viewBox="0 0 71.02 59.02"><defs><clipPath id="clip-path" transform="translate(-245.74 -255.41)"><rect x="245.41" y="255.1" width="71.69" height="59.63" fill="none"/></clipPath></defs><g clip-path="url(#clip-path)"><path d="M245.75,257.67a2.06,2.06,0,0,1,2.61-2.23L306,262.67s2.83.35,3.25,2.91l7.54,46.29a2.17,2.17,0,0,1-2.44,2.55h-61s-2.85,0-3.07-2.58Z" transform="translate(-245.74 -255.41)" fill="#9cc542"/><path d="M245.75,257.67a2.06,2.06,0,0,1,2.61-2.23L306,262.67s2.83.35,3.25,2.91l7.54,46.29a2.17,2.17,0,0,1-2.44,2.55h-61s-2.85,0-3.07-2.58Z" transform="translate(-245.74 -255.41)" fill="none"/></g><path d="M301.59,303.38v-6.24h4.62a1.48,1.48,0,0,1,1.05.37,1.22,1.22,0,0,1,.41.93v3.61a1.33,1.33,0,0,1-.37.94,1.24,1.24,0,0,1-.94.39Zm0,5.11v-3.6h5a2.81,2.81,0,0,0,2-.73,2.26,2.26,0,0,0,.8-1.73v-4.34a2.23,2.23,0,0,0-.81-1.74,2.7,2.7,0,0,0-1.94-.72h-6.67v12.86Zm-6.11-3.6h1.66v-9.26h-1.66Zm0-10.93h1.66V291.5h-1.66Zm-4.54,10.93h1.66V291.5h-1.66Zm-11.08-8.71a1.7,1.7,0,0,0-.66,1.35V299a1.74,1.74,0,0,0,.64,1.34,2.4,2.4,0,0,0,1.58.56h4.43a.88.88,0,0,1,.61.2.6.6,0,0,1,.23.52v1.18a.62.62,0,0,1-.23.52.87.87,0,0,1-.62.2h-6.22v1.42h6.51a2.37,2.37,0,0,0,1.57-.55,1.73,1.73,0,0,0,.65-1.34v-1.62a1.71,1.71,0,0,0-.64-1.34,2.35,2.35,0,0,0-1.58-.56h-4.42a.93.93,0,0,1-.61-.2.68.68,0,0,1-.24-.53v-1a.65.65,0,0,1,.23-.52.93.93,0,0,1,.62-.21h5.81v-1.42h-6.1a2.26,2.26,0,0,0-1.56.55m-3.86.18a2.73,2.73,0,0,0-1.93-.73H270a2.76,2.76,0,0,0-1.93.73,2.22,2.22,0,0,0-.8,1.74v6.79h1.67v-6.44a1.26,1.26,0,0,1,.41-.94,1.51,1.51,0,0,1,1-.37h3.31a1.49,1.49,0,0,1,1,.37,1.19,1.19,0,0,1,.41.94v6.44h1.68V298.1a2.24,2.24,0,0,0-.79-1.74m-14.43.79a1.48,1.48,0,0,1,1.05.37,1.2,1.2,0,0,1,.42.93v3.62a1.2,1.2,0,0,1-.42.94,1.48,1.48,0,0,1-1.05.37H257.9a1.55,1.55,0,0,1-1-.37,1.26,1.26,0,0,1-.41-.94v-3.62a1.25,1.25,0,0,1,.41-.92,1.51,1.51,0,0,1,1-.38Zm-6-.8a2.23,2.23,0,0,0-.81,1.74v4.34a2.23,2.23,0,0,0,.8,1.73,2.84,2.84,0,0,0,1.94.73H262a2.78,2.78,0,0,0,1.93-.72,2.26,2.26,0,0,0,.81-1.74v-4.34a2.23,2.23,0,0,0-.8-1.73,2.75,2.75,0,0,0-1.94-.73h-4.46a2.71,2.71,0,0,0-1.93.72" transform="translate(-245.74 -255.41)" fill="#fff"/></svg>